<?xml version="1.0" encoding="utf-8"?><svg xmlns="http://www.w3.org/2000/svg" xmlns:xlink="http://www.w3.org/1999/xlink"><symbol fill="#ba3e48" viewBox="0 0 600 394.8" id="logo"><path d="M218.96 47.378c-43.955 0-84.35 96.72-84.35 157.353 0 47.522 40.478 85.035 85.21 84.975 17.15-.022 34.075-4.912 48.13-14.397-47.513-61.625-23.836-129.255 13.395-165.382-15.67-35.27-38.277-62.548-62.385-62.548z"/><path d="M471.93 200.485c0 58.253-47.274 105.476-105.588 105.476-58.314 0-105.587-47.222-105.587-105.475 0-58.254 47.273-105.477 105.587-105.477S471.93 142.23 471.93 200.485zM352.11 323.344v72.48h27.578v-72.467c-9.62 1.364-18.72 1.243-27.577-.012z"/><path d="M285.193 78.75C296.455 38.33 331.38 1.463 386.966 1.042c65.338-.496 104.066 57.495 104.066 92.5-10.472 9.378-18.618 21.144-25.234 34.375-43.2-57.516-116.07-63.736-169.343-29.584-3.032-6.213-7.144-13.38-11.262-19.583zM139 106.667C82.005 62.597.103 103.843.103 175.417c.626 64.27 69.24 106.666 127.007 75.208-21.918-42.646-7.836-90.596 11.89-143.958zM476.943 146.273c8.974-20.596 27.68-49.827 49.96-49.827 38.396 0 73.175 87.343 73.175 129.377 0 44.11-36.698 71.56-70.873 71.56-26.332 0-45.19-12.118-59.046-29.87 21.297-34.55 27.485-73.752 6.783-121.24zM514.627 314.282v72.478h27.576v-72.466c-9.62 1.364-18.72 1.243-27.576-.012zM206.65 307.51v72.48h27.576v-72.467c-9.62 1.364-18.72 1.244-27.576-.012zM72.5 278.97v72.478h27.576v-72.466c-9.62 1.363-18.72 1.243-27.577-.013z"/></symbol></svg>